<svg width="58" height="58" viewBox="0 0 58 58" fill="none" xmlns="http://www.w3.org/2000/svg">
<path d="M50.2833 18.4704C49.8864 17.9853 49.6878 17.3953 49.7381 16.7873C49.7384 16.7836 49.7388 16.7799 49.7391 16.7763C49.7425 16.7376 49.7469 16.699 49.7523 16.6602C49.7563 16.6315 49.761 16.6028 49.7661 16.574C49.7693 16.5562 49.7725 16.5385 49.7761 16.5207C49.7859 16.4715 49.7976 16.4225 49.8106 16.3738C49.8126 16.3664 49.8146 16.3591 49.8167 16.3517C49.8405 16.2663 49.869 16.1818 49.9021 16.0986C49.9033 16.0956 49.9044 16.0927 49.9056 16.0897C50.1192 15.5591 50.518 15.0815 51.0352 14.7384C51.6894 14.3044 52.4695 14.1275 53.1705 14.2687C53.8735 14.4086 54.44 14.8552 54.7786 15.488C54.9359 15.7742 55.0874 16.062 55.2335 16.3527C57.8741 21.5842 58.6127 27.5343 57.4993 32.9402C57.4382 33.2408 57.3717 33.5393 57.2997 33.8367C57.2409 34.0739 57.0809 34.2863 56.8685 34.4292C56.6552 34.5719 56.4069 34.6333 56.1647 34.598C55.9225 34.5627 55.7023 34.433 55.5389 34.2354C55.3764 34.0379 55.2842 33.7888 55.296 33.5447C55.3088 33.2636 55.3162 32.9834 55.3186 32.7032C55.3684 27.8376 53.7917 23.1473 51.081 19.4843C50.9806 19.3486 50.8789 19.2141 50.7754 19.0813C50.7073 18.9935 50.6384 18.9067 50.5692 18.8202C50.5158 18.7536 50.4624 18.6871 50.4083 18.6212L50.3646 18.5684C50.3376 18.5357 50.3105 18.5029 50.2833 18.4704Z" fill="black"/>
<path d="M0.475422 34.2599C3.6454 30.2574 5.30097 25.4256 5.66485 19.8867C5.7474 19.8816 5.82931 19.8773 5.91123 19.8731C5.99326 19.8689 6.07536 19.8647 6.15803 19.8595L9.48357 38.3654C9.70471 38.3259 9.92642 38.2894 10.1511 38.2524L10.1603 38.251C9.93193 34.1126 9.22604 30.0344 8.51795 25.9434C8.15293 23.8346 7.78734 21.7222 7.48626 19.5966C10.8227 26.8079 16.0514 31.7815 23.9576 33.6116C23.4737 33.3603 22.9863 33.1153 22.4991 32.8705C21.452 32.3443 20.4054 31.8184 19.3938 31.2295C13.6671 27.9017 10.1646 22.8249 7.84943 16.7543C7.84575 16.7447 7.84219 16.735 7.83863 16.7254C8.33448 16.7808 8.83885 16.7332 9.31122 16.5652L9.31136 16.5653C9.98654 16.3265 10.517 15.8708 10.8661 15.2938C14.1932 19.9482 18.2875 23.0186 23.0786 24.6671C22.9027 23.6919 23.125 22.5686 23.7158 21.1805L23.9886 20.5219C23.7693 20.3076 23.5415 20.0969 23.3131 19.8857C22.015 18.6855 20.6978 17.4677 20.8111 15.4669C20.8433 14.9118 21.0804 14.3664 21.3174 13.8215C21.4259 13.5719 21.5344 13.3224 21.6232 13.0722C21.909 13.1898 22.1664 13.3185 22.4042 13.4373C22.8897 13.6799 23.2934 13.8817 23.6895 13.8654C24.1313 13.8472 24.5654 13.6098 24.9991 13.3726C25.1888 13.2689 25.3784 13.1651 25.5685 13.0798C25.4106 12.9185 25.26 12.7436 25.1097 12.5687C24.7584 12.1603 24.4075 11.7522 23.9625 11.5193C23.6805 11.3706 23.2663 11.4709 22.8482 11.5722C22.6596 11.6179 22.4702 11.6638 22.2918 11.6871C21.245 9.32528 21.6812 8.18251 24.157 6.86498C22.8875 3.18261 23.5492 1.24938 26.419 0.121393C27.3016 0.0410386 28.1957 3.84328e-07 29.0993 0C34.0081 -2.52109e-07 38.633 1.21177 42.6895 3.35154C44.4911 6.94574 47.2402 10.0244 50.8208 12.6505C50.781 12.722 50.7407 12.7924 50.7005 12.8629C50.6602 12.9334 50.6201 13.004 50.5803 13.0755L33.3025 5.96311C33.2164 6.17112 33.1272 6.37793 33.037 6.58764C36.6256 8.60712 40.4187 10.197 44.2237 11.7918C46.1852 12.6139 48.1498 13.4373 50.0912 14.3216C42.269 13.2489 35.3109 14.9464 29.5564 20.5515C30.0253 20.2828 30.4906 20.0078 30.9558 19.7329C31.9557 19.1421 32.9552 18.5516 33.9887 18.0239C38.8671 15.5278 43.9387 14.9724 49.1578 15.6205C49.0518 15.8528 48.9712 16.0964 48.9206 16.3485L48.9204 16.3483C48.9203 16.3488 48.9204 16.3493 48.9203 16.3497L48.9201 16.3502L48.9203 16.3503C48.7233 17.3257 49.0009 18.2798 49.607 19.0205L49.6098 19.0239L49.6128 19.0275C49.7646 19.209 49.9129 19.3931 50.0584 19.5799C44.9921 20.1428 40.7021 21.9628 37.1102 24.925C38.2647 25.2308 39.2385 26.1207 40.227 27.6669L40.625 28.2761C40.9324 28.216 41.2417 28.1468 41.5518 28.0774C43.3143 27.6827 45.1027 27.2822 46.7249 28.5333C47.1745 28.881 47.4974 29.3951 47.8201 29.9086C47.9679 30.1438 48.1157 30.3789 48.2755 30.5979C48.0111 30.7694 47.7539 30.9108 47.5163 31.0415C47.0311 31.3084 46.6276 31.5302 46.4124 31.8717C46.1725 32.2525 46.122 32.7537 46.0714 33.2543C46.0493 33.4732 46.0272 33.692 45.9893 33.9007C46.2166 33.8615 46.4512 33.8364 46.6855 33.8114C47.233 33.753 47.7801 33.6947 48.2337 33.4562C48.5221 33.3057 48.6767 32.9005 48.8327 32.4916C48.9032 32.3071 48.974 32.1218 49.0574 31.9588C51.6544 32.446 52.3665 33.4718 52.0472 36.3086C54.4358 36.9702 55.8215 37.8673 56.3575 39.187C54.0457 45.3378 49.6991 50.4976 44.1347 53.8518C40.1147 53.3225 35.9854 53.8537 31.76 55.3176L31.5404 54.8703L47.5233 44.4964C47.3993 44.3066 47.278 44.115 47.155 43.9209L47.1499 43.9129C43.3729 45.7543 39.84 48.0154 36.2962 50.2836C34.5199 51.4205 32.7407 52.559 30.9267 53.6474C30.918 53.6311 30.909 53.6149 30.9001 53.5987C36.2372 47.6945 38.7744 40.9252 37.3828 32.9264C37.3385 33.4747 37.3016 34.0237 37.2646 34.5725C37.1852 35.7521 37.1058 36.9313 36.9537 38.1025C36.2224 43.7732 33.6535 48.4359 29.9453 52.5077C29.9402 52.5041 29.9352 52.5002 29.9301 52.4965C29.1667 51.9533 28.2398 51.825 27.3723 52.0579L27.3677 52.059L27.3633 52.0603L27.1975 52.1059C27.0316 52.1507 26.8651 52.1933 26.6978 52.2335L26.6966 52.2338L26.6955 52.2339L26.5071 52.2788C26.1032 52.3724 25.6945 52.452 25.2819 52.5181C28.3164 47.6915 29.6328 42.7796 29.4006 37.7835C28.8995 37.9656 28.3243 38.1082 27.6681 38.2188L26.9582 38.3456C26.8948 38.6479 26.839 38.9555 26.783 39.2638C26.4652 41.016 26.1427 42.794 24.3752 43.7853C23.8845 44.0597 23.2905 44.1552 22.6971 44.2505C22.4253 44.2941 22.1537 44.3377 21.8921 44.3985C21.8371 44.0924 21.8068 43.8044 21.7789 43.5384C21.7219 42.9951 21.6746 42.5434 21.4454 42.2166C21.1899 41.8521 20.7515 41.6133 20.3136 41.3747C20.1221 41.2704 19.9306 41.1661 19.7546 41.0514C19.7029 41.2728 19.6354 41.4954 19.568 41.7178C19.4106 42.2374 19.2534 42.7565 19.2966 43.2602C19.3231 43.58 19.6339 43.8765 19.9474 44.1757C20.0888 44.3106 20.2309 44.4462 20.3477 44.5846C18.9028 46.7552 17.6916 47.0068 15.2227 45.6249C12.6508 48.8553 10.5657 49.2341 7.86236 47.0836C7.57198 47.2587 7.29168 47.4539 7.01482 47.6466C6.96939 47.6783 6.92398 47.7099 6.8787 47.7413C3.66494 43.9562 1.40682 39.339 0.475422 34.2599Z" fill="black"/>
<path d="M44.7614 4.55597C48.0814 6.67365 50.9415 9.44485 53.1593 12.6876C52.7627 12.4633 52.3635 12.1904 51.9569 11.8973C49.0296 9.78535 46.6136 7.35273 44.7614 4.55597Z" fill="black"/>
<path d="M30.1611 58C30.3818 57.8285 30.581 57.6231 30.7517 57.3843L30.7518 57.3844C30.8429 57.2573 30.9233 57.1237 30.9936 56.9855C31.2339 56.8886 31.4833 56.796 31.7387 56.7052C35.2507 55.4577 38.7372 54.8379 42.2045 54.9176C38.563 56.7519 34.4821 57.8455 30.1611 58Z" fill="black"/>
<path d="M11.749 52.409C11.7092 52.1778 11.7506 51.9479 11.8709 51.7593C11.9912 51.5707 12.1826 51.4358 12.4094 51.3737C12.6359 51.3122 12.8794 51.3286 13.0796 51.4298C13.3106 51.5457 13.5428 51.6568 13.7769 51.7637C17.4427 53.446 21.4851 53.9707 25.2431 53.4048C25.4166 53.3787 25.5894 53.3503 25.7616 53.3195C26.1454 53.2509 26.5259 53.171 26.9024 53.0794C27.1363 53.0232 27.3683 52.9627 27.5992 52.8981C27.7658 52.8534 27.9336 52.8275 28.1002 52.8198C28.1046 52.8196 28.109 52.8193 28.1134 52.8191C28.5785 52.8004 29.0334 52.9272 29.4241 53.2056C29.9581 53.5842 30.3284 54.2149 30.4473 54.9227C30.5662 55.6304 30.4225 56.3469 30.0415 56.8783C29.6609 57.4118 29.0741 57.7168 28.4166 57.762C28.1177 57.7859 27.8194 57.8042 27.5209 57.817C22.1445 58.0584 16.8779 56.4455 12.7614 53.4926C12.5322 53.3291 12.3068 53.1618 12.0845 52.9905C11.9075 52.8526 11.7892 52.6396 11.749 52.409Z" fill="black"/>
<path d="M5.64496 14.1483C5.42388 13.5317 5.50883 12.8775 5.84786 12.3141C5.99925 12.056 6.15479 11.8018 6.31504 11.5504C9.19302 7.01675 13.5337 3.63391 18.3184 1.95815C18.5841 1.86435 18.8508 1.77573 19.119 1.69199C19.3336 1.62628 19.5765 1.65147 19.7891 1.75049C20.0021 1.85021 20.1675 2.01574 20.2539 2.22204C20.3402 2.42833 20.3417 2.66195 20.263 2.88297C20.1839 3.10333 20.031 3.29318 19.8332 3.39899C19.6057 3.52144 19.3814 3.64756 19.1595 3.77776C15.1589 6.11532 12.1309 9.73391 10.5663 13.7557C10.4787 13.9791 10.3956 14.2033 10.3166 14.429C10.2978 14.4811 10.2771 14.5322 10.255 14.5823C10.2544 14.5834 10.2539 14.5846 10.2534 14.5858C10.222 14.6566 10.1875 14.7252 10.1498 14.7915C10.1488 14.7933 10.1478 14.7951 10.1468 14.7969C10.09 14.8963 10.0261 14.9903 9.95572 15.0785C9.95281 15.0821 9.94985 15.0857 9.94691 15.0894C9.91413 15.1299 9.88002 15.1692 9.84447 15.2071C9.84033 15.2115 9.83614 15.2159 9.83196 15.2202C9.82282 15.2298 9.81358 15.2393 9.80426 15.2487C9.79955 15.2535 9.7948 15.2582 9.79005 15.2629C9.78135 15.2715 9.77261 15.2801 9.76376 15.2885C9.75875 15.2933 9.75362 15.298 9.74856 15.3027C9.73989 15.3108 9.73123 15.3189 9.72242 15.3269C9.7171 15.3317 9.71173 15.3365 9.70636 15.3412C9.69615 15.3503 9.68592 15.3593 9.67553 15.3681C9.67328 15.37 9.67097 15.3719 9.66871 15.3738C9.64189 15.3964 9.61458 15.4185 9.58658 15.4398C9.58034 15.4445 9.57398 15.4491 9.56768 15.4538C9.40371 15.5755 9.22023 15.6741 9.01937 15.7452C8.99482 15.7539 8.9701 15.7623 8.9452 15.7701C8.94158 15.7713 8.9379 15.7723 8.93426 15.7734C8.69954 15.8462 8.45019 15.8803 8.19626 15.8771C8.19181 15.877 8.18736 15.8769 8.18291 15.8768C8.04388 15.8743 7.90356 15.8608 7.76361 15.8363C7.75892 15.8355 7.75423 15.8346 7.74954 15.8337C7.50249 15.7891 7.25671 15.7105 7.02149 15.5992C6.37122 15.2914 5.86411 14.7638 5.64496 14.1483Z" fill="black"/>
<path d="M0 29.0096C4.61623e-06 24.0895 1.22855 19.4555 3.39658 15.3959C4.45553 16.2854 4.49786 17.7207 4.40525 19.3331C4.11677 24.3217 2.78628 28.8208 0.242968 32.7757C0.0826616 31.5429 2.56808e-06 30.2859 0 29.0096Z" fill="black"/>
</svg>
